<svg xmlns="http://www.w3.org/2000/svg" viewBox="0 0 792 920" style="font-family: 'Courier New', monospace; font-size: 14px;">
  <defs>
    <style>
      .title { font-size: 18px; font-weight: bold; fill: #000000; }
      .format-title { font-size: 16px; font-weight: bold; fill: #000000; }
      .line-number { fill: #888888; }
      .border { fill: none; stroke: #cccccc; stroke-width: 2; }
      .border-line { stroke: #cccccc; stroke-width: 2; }
      .bg { fill: #ffffff; }
    </style>
  </defs>

  <rect x="0" y="0" width="792" height="920" class="bg"/>

  <text x="396" y="30" text-anchor="middle" class="title">Format Comparison: LiNo, YAML, JSON, XML</text>

  <rect x="20" y="50" width="752" height="850" class="border"/>
  <line x1="396" y1="50" x2="396" y2="900" class="border-line"/>
  <line x1="20" y1="475" x2="772" y2="475" class="border-line"/>

  <text x="208" y="75" text-anchor="middle" class="format-title">LiNo</text>

  <text class="line-number">
    <tspan x="40" y="95">1</tspan>
  </text>
  <text xml:space="preserve">
    <tspan x="70" y="95" fill="#000000">(</tspan>
  </text>

  <text class="line-number">
    <tspan x="40" y="115">2</tspan>
  </text>
  <text xml:space="preserve">
    <tspan x="70" y="115" fill="#000000">  </tspan><tspan x="86.8" y="115" fill="#0000ff">empInfo</tspan><tspan x="145.6" y="115" fill="#000000"> </tspan><tspan x="154.0" y="115" fill="#000000">(</tspan>
  </text>

  <text class="line-number">
    <tspan x="40" y="135">3</tspan>
  </text>
  <text xml:space="preserve">
    <tspan x="70" y="135" fill="#000000">    </tspan><tspan x="103.6" y="135" fill="#0000ff">employees</tspan><tspan x="179.2" y="135" fill="#000000"> </tspan><tspan x="187.6" y="135" fill="#000000">(</tspan>
  </text>

  <text class="line-number">
    <tspan x="40" y="155">4</tspan>
  </text>
  <text xml:space="preserve">
    <tspan x="70" y="155" fill="#000000">      </tspan><tspan x="120.4" y="155" fill="#000000">(</tspan>
  </text>

  <text class="line-number">
    <tspan x="40" y="175">5</tspan>
  </text>
  <text xml:space="preserve">
    <tspan x="70" y="175" fill="#000000">        </tspan><tspan x="137.2" y="175" fill="#0000ff">name</tspan><tspan x="170.79999999999998" y="175" fill="#000000"> </tspan><tspan x="179.2" y="175" fill="#008000">&quot;James Kirk&quot;</tspan>
  </text>

  <text class="line-number">
    <tspan x="40" y="195">6</tspan>
  </text>
  <text xml:space="preserve">
    <tspan x="70" y="195" fill="#000000">        </tspan><tspan x="137.2" y="195" fill="#0000ff">age</tspan><tspan x="162.39999999999998" y="195" fill="#000000"> </tspan><tspan x="170.79999999999998" y="195" fill="#ff0000">40</tspan>
  </text>

  <text class="line-number">
    <tspan x="40" y="215">7</tspan>
  </text>
  <text xml:space="preserve">
    <tspan x="70" y="215" fill="#000000">      </tspan><tspan x="120.4" y="215" fill="#000000">)</tspan>
  </text>

  <text class="line-number">
    <tspan x="40" y="235">8</tspan>
  </text>
  <text xml:space="preserve">
    <tspan x="70" y="235" fill="#000000">      </tspan><tspan x="120.4" y="235" fill="#000000">(</tspan>
  </text>

  <text class="line-number">
    <tspan x="40" y="255">9</tspan>
  </text>
  <text xml:space="preserve">
    <tspan x="70" y="255" fill="#000000">        </tspan><tspan x="137.2" y="255" fill="#0000ff">name</tspan><tspan x="170.79999999999998" y="255" fill="#000000"> </tspan><tspan x="179.2" y="255" fill="#008000">&quot;Jean-Luc Picard&quot;</tspan>
  </text>

  <text class="line-number">
    <tspan x="40" y="275">10</tspan>
  </text>
  <text xml:space="preserve">
    <tspan x="70" y="275" fill="#000000">        </tspan><tspan x="137.2" y="275" fill="#0000ff">age</tspan><tspan x="162.39999999999998" y="275" fill="#000000"> </tspan><tspan x="170.79999999999998" y="275" fill="#ff0000">45</tspan>
  </text>

  <text class="line-number">
    <tspan x="40" y="295">11</tspan>
  </text>
  <text xml:space="preserve">
    <tspan x="70" y="295" fill="#000000">      </tspan><tspan x="120.4" y="295" fill="#000000">)</tspan>
  </text>

  <text class="line-number">
    <tspan x="40" y="315">12</tspan>
  </text>
  <text xml:space="preserve">
    <tspan x="70" y="315" fill="#000000">      </tspan><tspan x="120.4" y="315" fill="#000000">(</tspan>
  </text>

  <text class="line-number">
    <tspan x="40" y="335">13</tspan>
  </text>
  <text xml:space="preserve">
    <tspan x="70" y="335" fill="#000000">        </tspan><tspan x="137.2" y="335" fill="#0000ff">name</tspan><tspan x="170.79999999999998" y="335" fill="#000000"> </tspan><tspan x="179.2" y="335" fill="#008000">&quot;Wesley Crusher&quot;</tspan>
  </text>

  <text class="line-number">
    <tspan x="40" y="355">14</tspan>
  </text>
  <text xml:space="preserve">
    <tspan x="70" y="355" fill="#000000">        </tspan><tspan x="137.2" y="355" fill="#0000ff">age</tspan><tspan x="162.39999999999998" y="355" fill="#000000"> </tspan><tspan x="170.79999999999998" y="355" fill="#ff0000">27</tspan>
  </text>

  <text class="line-number">
    <tspan x="40" y="375">15</tspan>
  </text>
  <text xml:space="preserve">
    <tspan x="70" y="375" fill="#000000">      </tspan><tspan x="120.4" y="375" fill="#000000">)</tspan>
  </text>

  <text class="line-number">
    <tspan x="40" y="395">16</tspan>
  </text>
  <text xml:space="preserve">
    <tspan x="70" y="395" fill="#000000">    </tspan><tspan x="103.6" y="395" fill="#000000">)</tspan>
  </text>

  <text class="line-number">
    <tspan x="40" y="415">17</tspan>
  </text>
  <text xml:space="preserve">
    <tspan x="70" y="415" fill="#000000">  </tspan><tspan x="86.8" y="415" fill="#000000">)</tspan>
  </text>

  <text class="line-number">
    <tspan x="40" y="435">18</tspan>
  </text>
  <text xml:space="preserve">
    <tspan x="70" y="435" fill="#000000">)</tspan>
  </text>

  <text x="584" y="75" text-anchor="middle" class="format-title">YAML</text>

  <text class="line-number">
    <tspan x="416" y="95">1</tspan>
  </text>
  <text xml:space="preserve">
    <tspan x="446" y="95" fill="#0000ff">empInfo</tspan><tspan x="504.8" y="95" fill="#000000">:</tspan>
  </text>

  <text class="line-number">
    <tspan x="416" y="115">2</tspan>
  </text>
  <text xml:space="preserve">
    <tspan x="446" y="115" fill="#000000">  </tspan><tspan x="462.8" y="115" fill="#0000ff">employees</tspan><tspan x="538.4" y="115" fill="#000000">:</tspan>
  </text>

  <text class="line-number">
    <tspan x="416" y="135">3</tspan>
  </text>
  <text xml:space="preserve">
    <tspan x="446" y="135" fill="#000000">    </tspan><tspan x="479.6" y="135" fill="#000000">- </tspan><tspan x="496.40000000000003" y="135" fill="#0000ff">name</tspan><tspan x="530.0" y="135" fill="#000000">:</tspan><tspan x="538.4" y="135" fill="#000000"> </tspan><tspan x="546.8" y="135" fill="#008000">James Kirk</tspan>
  </text>

  <text class="line-number">
    <tspan x="416" y="155">4</tspan>
  </text>
  <text xml:space="preserve">
    <tspan x="446" y="155" fill="#000000">      </tspan><tspan x="496.4" y="155" fill="#0000ff">age</tspan><tspan x="521.6" y="155" fill="#000000">:</tspan><tspan x="530.0" y="155" fill="#000000"> </tspan><tspan x="538.4" y="155" fill="#ff0000">40</tspan>
  </text>

  <text class="line-number">
    <tspan x="416" y="175">5</tspan>
  </text>
  <text xml:space="preserve">
    <tspan x="446" y="175" fill="#000000">    </tspan><tspan x="479.6" y="175" fill="#000000">- </tspan><tspan x="496.40000000000003" y="175" fill="#0000ff">name</tspan><tspan x="530.0" y="175" fill="#000000">:</tspan><tspan x="538.4" y="175" fill="#000000"> </tspan><tspan x="546.8" y="175" fill="#008000">Jean-Luc Picard</tspan>
  </text>

  <text class="line-number">
    <tspan x="416" y="195">6</tspan>
  </text>
  <text xml:space="preserve">
    <tspan x="446" y="195" fill="#000000">      </tspan><tspan x="496.4" y="195" fill="#0000ff">age</tspan><tspan x="521.6" y="195" fill="#000000">:</tspan><tspan x="530.0" y="195" fill="#000000"> </tspan><tspan x="538.4" y="195" fill="#ff0000">45</tspan>
  </text>

  <text class="line-number">
    <tspan x="416" y="215">7</tspan>
  </text>
  <text xml:space="preserve">
    <tspan x="446" y="215" fill="#000000">    </tspan><tspan x="479.6" y="215" fill="#000000">- </tspan><tspan x="496.40000000000003" y="215" fill="#0000ff">name</tspan><tspan x="530.0" y="215" fill="#000000">:</tspan><tspan x="538.4" y="215" fill="#000000"> </tspan><tspan x="546.8" y="215" fill="#008000">Wesley Crusher</tspan>
  </text>

  <text class="line-number">
    <tspan x="416" y="235">8</tspan>
  </text>
  <text xml:space="preserve">
    <tspan x="446" y="235" fill="#000000">      </tspan><tspan x="496.4" y="235" fill="#0000ff">age</tspan><tspan x="521.6" y="235" fill="#000000">:</tspan><tspan x="530.0" y="235" fill="#000000"> </tspan><tspan x="538.4" y="235" fill="#ff0000">27</tspan>
  </text>

  <text x="208" y="500" text-anchor="middle" class="format-title">JSON</text>

  <text class="line-number">
    <tspan x="40" y="520">1</tspan>
  </text>
  <text xml:space="preserve">
    <tspan x="70" y="520" fill="#000000">{</tspan>
  </text>

  <text class="line-number">
    <tspan x="40" y="540">2</tspan>
  </text>
  <text xml:space="preserve">
    <tspan x="70" y="540" fill="#000000">  </tspan><tspan x="86.8" y="540" fill="#0000ff">&quot;empInfo&quot;</tspan><tspan x="162.4" y="540" fill="#000000">:</tspan><tspan x="170.8" y="540" fill="#000000"> </tspan><tspan x="179.20000000000002" y="540" fill="#000000">{</tspan>
  </text>

  <text class="line-number">
    <tspan x="40" y="560">3</tspan>
  </text>
  <text xml:space="preserve">
    <tspan x="70" y="560" fill="#000000">    </tspan><tspan x="103.6" y="560" fill="#0000ff">&quot;employees&quot;</tspan><tspan x="196.0" y="560" fill="#000000">:</tspan><tspan x="204.4" y="560" fill="#000000"> </tspan><tspan x="212.8" y="560" fill="#000000">[</tspan>
  </text>

  <text class="line-number">
    <tspan x="40" y="580">4</tspan>
  </text>
  <text xml:space="preserve">
    <tspan x="70" y="580" fill="#000000">      </tspan><tspan x="120.4" y="580" fill="#000000">{</tspan>
  </text>

  <text class="line-number">
    <tspan x="40" y="600">5</tspan>
  </text>
  <text xml:space="preserve">
    <tspan x="70" y="600" fill="#000000">        </tspan><tspan x="137.2" y="600" fill="#0000ff">&quot;name&quot;</tspan><tspan x="187.6" y="600" fill="#000000">:</tspan><tspan x="196.0" y="600" fill="#000000"> </tspan><tspan x="204.4" y="600" fill="#0000ff">&quot;James Kirk&quot;</tspan><tspan x="305.20000000000005" y="600" fill="#000000">,</tspan>
  </text>

  <text class="line-number">
    <tspan x="40" y="620">6</tspan>
  </text>
  <text xml:space="preserve">
    <tspan x="70" y="620" fill="#000000">        </tspan><tspan x="137.2" y="620" fill="#0000ff">&quot;age&quot;</tspan><tspan x="179.2" y="620" fill="#000000">:</tspan><tspan x="187.6" y="620" fill="#000000"> </tspan><tspan x="196.0" y="620" fill="#ff0000">40</tspan>
  </text>

  <text class="line-number">
    <tspan x="40" y="640">7</tspan>
  </text>
  <text xml:space="preserve">
    <tspan x="70" y="640" fill="#000000">      </tspan><tspan x="120.4" y="640" fill="#000000">}</tspan><tspan x="128.8" y="640" fill="#000000">,</tspan>
  </text>

  <text class="line-number">
    <tspan x="40" y="660">8</tspan>
  </text>
  <text xml:space="preserve">
    <tspan x="70" y="660" fill="#000000">      </tspan><tspan x="120.4" y="660" fill="#000000">{</tspan>
  </text>

  <text class="line-number">
    <tspan x="40" y="680">9</tspan>
  </text>
  <text xml:space="preserve">
    <tspan x="70" y="680" fill="#000000">        </tspan><tspan x="137.2" y="680" fill="#0000ff">&quot;name&quot;</tspan><tspan x="187.6" y="680" fill="#000000">:</tspan><tspan x="196.0" y="680" fill="#000000"> </tspan><tspan x="204.4" y="680" fill="#0000ff">&quot;Jean-Luc Picard&quot;</tspan><tspan x="347.20000000000005" y="680" fill="#000000">,</tspan>
  </text>

  <text class="line-number">
    <tspan x="40" y="700">10</tspan>
  </text>
  <text xml:space="preserve">
    <tspan x="70" y="700" fill="#000000">        </tspan><tspan x="137.2" y="700" fill="#0000ff">&quot;age&quot;</tspan><tspan x="179.2" y="700" fill="#000000">:</tspan><tspan x="187.6" y="700" fill="#000000"> </tspan><tspan x="196.0" y="700" fill="#ff0000">45</tspan>
  </text>

  <text class="line-number">
    <tspan x="40" y="720">11</tspan>
  </text>
  <text xml:space="preserve">
    <tspan x="70" y="720" fill="#000000">      </tspan><tspan x="120.4" y="720" fill="#000000">}</tspan><tspan x="128.8" y="720" fill="#000000">,</tspan>
  </text>

  <text class="line-number">
    <tspan x="40" y="740">12</tspan>
  </text>
  <text xml:space="preserve">
    <tspan x="70" y="740" fill="#000000">      </tspan><tspan x="120.4" y="740" fill="#000000">{</tspan>
  </text>

  <text class="line-number">
    <tspan x="40" y="760">13</tspan>
  </text>
  <text xml:space="preserve">
    <tspan x="70" y="760" fill="#000000">        </tspan><tspan x="137.2" y="760" fill="#0000ff">&quot;name&quot;</tspan><tspan x="187.6" y="760" fill="#000000">:</tspan><tspan x="196.0" y="760" fill="#000000"> </tspan><tspan x="204.4" y="760" fill="#0000ff">&quot;Wesley Crusher&quot;</tspan><tspan x="338.8" y="760" fill="#000000">,</tspan>
  </text>

  <text class="line-number">
    <tspan x="40" y="780">14</tspan>
  </text>
  <text xml:space="preserve">
    <tspan x="70" y="780" fill="#000000">        </tspan><tspan x="137.2" y="780" fill="#0000ff">&quot;age&quot;</tspan><tspan x="179.2" y="780" fill="#000000">:</tspan><tspan x="187.6" y="780" fill="#000000"> </tspan><tspan x="196.0" y="780" fill="#ff0000">27</tspan>
  </text>

  <text class="line-number">
    <tspan x="40" y="800">15</tspan>
  </text>
  <text xml:space="preserve">
    <tspan x="70" y="800" fill="#000000">      </tspan><tspan x="120.4" y="800" fill="#000000">}</tspan>
  </text>

  <text class="line-number">
    <tspan x="40" y="820">16</tspan>
  </text>
  <text xml:space="preserve">
    <tspan x="70" y="820" fill="#000000">    </tspan><tspan x="103.6" y="820" fill="#000000">]</tspan>
  </text>

  <text class="line-number">
    <tspan x="40" y="840">17</tspan>
  </text>
  <text xml:space="preserve">
    <tspan x="70" y="840" fill="#000000">  </tspan><tspan x="86.8" y="840" fill="#000000">}</tspan>
  </text>

  <text class="line-number">
    <tspan x="40" y="860">18</tspan>
  </text>
  <text xml:space="preserve">
    <tspan x="70" y="860" fill="#000000">}</tspan>
  </text>

  <text x="584" y="500" text-anchor="middle" class="format-title">XML</text>

  <text class="line-number">
    <tspan x="416" y="520">1</tspan>
  </text>
  <text xml:space="preserve">
    <tspan x="446" y="520" fill="#800080">&lt;</tspan><tspan x="454.4" y="520" fill="#800080">empInfo</tspan><tspan x="513.1999999999999" y="520" fill="#800080">&gt;</tspan>
  </text>

  <text class="line-number">
    <tspan x="416" y="540">2</tspan>
  </text>
  <text xml:space="preserve">
    <tspan x="446" y="540" fill="#000000">  </tspan><tspan x="462.8" y="540" fill="#800080">&lt;</tspan><tspan x="471.2" y="540" fill="#800080">employees</tspan><tspan x="546.8" y="540" fill="#800080">&gt;</tspan>
  </text>

  <text class="line-number">
    <tspan x="416" y="560">3</tspan>
  </text>
  <text xml:space="preserve">
    <tspan x="446" y="560" fill="#000000">    </tspan><tspan x="479.6" y="560" fill="#800080">&lt;</tspan><tspan x="488.0" y="560" fill="#800080">employee</tspan><tspan x="555.2" y="560" fill="#800080">&gt;</tspan>
  </text>

  <text class="line-number">
    <tspan x="416" y="580">4</tspan>
  </text>
  <text xml:space="preserve">
    <tspan x="446" y="580" fill="#000000">      </tspan><tspan x="496.4" y="580" fill="#800080">&lt;</tspan><tspan x="504.79999999999995" y="580" fill="#800080">name</tspan><tspan x="538.4" y="580" fill="#800080">&gt;</tspan><tspan x="546.8" y="580" fill="#008000">James Kirk</tspan><tspan x="630.8" y="580" fill="#800080">&lt;</tspan><tspan x="639.1999999999999" y="580" fill="#800080">/</tspan><tspan x="647.5999999999999" y="580" fill="#800080">name</tspan><tspan x="681.1999999999999" y="580" fill="#800080">&gt;</tspan>
  </text>

  <text class="line-number">
    <tspan x="416" y="600">5</tspan>
  </text>
  <text xml:space="preserve">
    <tspan x="446" y="600" fill="#000000">      </tspan><tspan x="496.4" y="600" fill="#800080">&lt;</tspan><tspan x="504.79999999999995" y="600" fill="#800080">age</tspan><tspan x="530.0" y="600" fill="#800080">&gt;</tspan><tspan x="538.4" y="600" fill="#ff0000">40</tspan><tspan x="555.1999999999999" y="600" fill="#800080">&lt;</tspan><tspan x="563.5999999999999" y="600" fill="#800080">/</tspan><tspan x="571.9999999999999" y="600" fill="#800080">age</tspan><tspan x="597.1999999999999" y="600" fill="#800080">&gt;</tspan>
  </text>

  <text class="line-number">
    <tspan x="416" y="620">6</tspan>
  </text>
  <text xml:space="preserve">
    <tspan x="446" y="620" fill="#000000">    </tspan><tspan x="479.6" y="620" fill="#800080">&lt;</tspan><tspan x="488.0" y="620" fill="#800080">/</tspan><tspan x="496.4" y="620" fill="#800080">employee</tspan><tspan x="563.6" y="620" fill="#800080">&gt;</tspan>
  </text>

  <text class="line-number">
    <tspan x="416" y="640">7</tspan>
  </text>
  <text xml:space="preserve">
    <tspan x="446" y="640" fill="#000000">    </tspan><tspan x="479.6" y="640" fill="#800080">&lt;</tspan><tspan x="488.0" y="640" fill="#800080">employee</tspan><tspan x="555.2" y="640" fill="#800080">&gt;</tspan>
  </text>

  <text class="line-number">
    <tspan x="416" y="660">8</tspan>
  </text>
  <text xml:space="preserve">
    <tspan x="446" y="660" fill="#000000">      </tspan><tspan x="496.4" y="660" fill="#800080">&lt;</tspan><tspan x="504.79999999999995" y="660" fill="#800080">name</tspan><tspan x="538.4" y="660" fill="#800080">&gt;</tspan><tspan x="546.8" y="660" fill="#008000">Jean-Luc Picard</tspan><tspan x="672.8" y="660" fill="#800080">&lt;</tspan><tspan x="681.1999999999999" y="660" fill="#800080">/</tspan><tspan x="689.5999999999999" y="660" fill="#800080">name</tspan><tspan x="723.1999999999999" y="660" fill="#800080">&gt;</tspan>
  </text>

  <text class="line-number">
    <tspan x="416" y="680">9</tspan>
  </text>
  <text xml:space="preserve">
    <tspan x="446" y="680" fill="#000000">      </tspan><tspan x="496.4" y="680" fill="#800080">&lt;</tspan><tspan x="504.79999999999995" y="680" fill="#800080">age</tspan><tspan x="530.0" y="680" fill="#800080">&gt;</tspan><tspan x="538.4" y="680" fill="#ff0000">45</tspan><tspan x="555.1999999999999" y="680" fill="#800080">&lt;</tspan><tspan x="563.5999999999999" y="680" fill="#800080">/</tspan><tspan x="571.9999999999999" y="680" fill="#800080">age</tspan><tspan x="597.1999999999999" y="680" fill="#800080">&gt;</tspan>
  </text>

  <text class="line-number">
    <tspan x="416" y="700">10</tspan>
  </text>
  <text xml:space="preserve">
    <tspan x="446" y="700" fill="#000000">    </tspan><tspan x="479.6" y="700" fill="#800080">&lt;</tspan><tspan x="488.0" y="700" fill="#800080">/</tspan><tspan x="496.4" y="700" fill="#800080">employee</tspan><tspan x="563.6" y="700" fill="#800080">&gt;</tspan>
  </text>

  <text class="line-number">
    <tspan x="416" y="720">11</tspan>
  </text>
  <text xml:space="preserve">
    <tspan x="446" y="720" fill="#000000">    </tspan><tspan x="479.6" y="720" fill="#800080">&lt;</tspan><tspan x="488.0" y="720" fill="#800080">employee</tspan><tspan x="555.2" y="720" fill="#800080">&gt;</tspan>
  </text>

  <text class="line-number">
    <tspan x="416" y="740">12</tspan>
  </text>
  <text xml:space="preserve">
    <tspan x="446" y="740" fill="#000000">      </tspan><tspan x="496.4" y="740" fill="#800080">&lt;</tspan><tspan x="504.79999999999995" y="740" fill="#800080">name</tspan><tspan x="538.4" y="740" fill="#800080">&gt;</tspan><tspan x="546.8" y="740" fill="#008000">Wesley Crusher</tspan><tspan x="664.4" y="740" fill="#800080">&lt;</tspan><tspan x="672.8" y="740" fill="#800080">/</tspan><tspan x="681.1999999999999" y="740" fill="#800080">name</tspan><tspan x="714.8" y="740" fill="#800080">&gt;</tspan>
  </text>

  <text class="line-number">
    <tspan x="416" y="760">13</tspan>
  </text>
  <text xml:space="preserve">
    <tspan x="446" y="760" fill="#000000">      </tspan><tspan x="496.4" y="760" fill="#800080">&lt;</tspan><tspan x="504.79999999999995" y="760" fill="#800080">age</tspan><tspan x="530.0" y="760" fill="#800080">&gt;</tspan><tspan x="538.4" y="760" fill="#ff0000">27</tspan><tspan x="555.1999999999999" y="760" fill="#800080">&lt;</tspan><tspan x="563.5999999999999" y="760" fill="#800080">/</tspan><tspan x="571.9999999999999" y="760" fill="#800080">age</tspan><tspan x="597.1999999999999" y="760" fill="#800080">&gt;</tspan>
  </text>

  <text class="line-number">
    <tspan x="416" y="780">14</tspan>
  </text>
  <text xml:space="preserve">
    <tspan x="446" y="780" fill="#000000">    </tspan><tspan x="479.6" y="780" fill="#800080">&lt;</tspan><tspan x="488.0" y="780" fill="#800080">/</tspan><tspan x="496.4" y="780" fill="#800080">employee</tspan><tspan x="563.6" y="780" fill="#800080">&gt;</tspan>
  </text>

  <text class="line-number">
    <tspan x="416" y="800">15</tspan>
  </text>
  <text xml:space="preserve">
    <tspan x="446" y="800" fill="#000000">  </tspan><tspan x="462.8" y="800" fill="#800080">&lt;</tspan><tspan x="471.2" y="800" fill="#800080">/</tspan><tspan x="479.59999999999997" y="800" fill="#800080">employees</tspan><tspan x="555.1999999999999" y="800" fill="#800080">&gt;</tspan>
  </text>

  <text class="line-number">
    <tspan x="416" y="820">16</tspan>
  </text>
  <text xml:space="preserve">
    <tspan x="446" y="820" fill="#800080">&lt;</tspan><tspan x="454.4" y="820" fill="#800080">/</tspan><tspan x="462.79999999999995" y="820" fill="#800080">empInfo</tspan><tspan x="521.5999999999999" y="820" fill="#800080">&gt;</tspan>
  </text>

</svg>
